<svg id="art" xmlns="http://www.w3.org/2000/svg" viewBox="0 0 1021 244"><defs><style>.cls-1{fill:#e60023;}.cls-2{fill:#fff;}</style></defs><title>wordmark+badgeRGB</title><path class="cls-1" d="M403,90h32V192H403Z" transform="translate(-1 -3)"/><path class="cls-1" d="M442,90h31v14h1c8-11,17-17,31-17s35,16,35,38v66H508V132c0-11-5-18-16-18s-18,9-18,21v56H442Z" transform="translate(-1 -3)"/><circle class="cls-1" cx="418" cy="60" r="19"/><path class="cls-1" d="M768,89h-3c-12,0-21,5-28,17h-1V90H705V192h32V146c0-21,12-31,30-29Z" transform="translate(-1 -3)"/><path class="cls-1" d="M926,128c-13-2-24-3-24-11s6-9,14-9,15,3,16,12h30c-2-20-17-33-46-33s-44,11-44,33,19,29,36,32,26,3,26,12-6,10-16,10-16-4-18-12H870c2,21,21,34,49,34s46-11,46-34S944,131,926,128Z" transform="translate(-1 -3)"/><path class="cls-1" d="M820,171c-13,0-21-9-23-22h73c0-21-6-38-18-49s-20-13-35-13c-31,0-52,23-52,54s21,54,54,54c13,0,23-3,32-9a41,41,0,0,0,17-24H836C834,168,828,171,820,171Zm-2-61c11,0,18,8,19,20H797C799,118,805,110,818,110Z" transform="translate(-1 -3)"/><path class="cls-1" d="M1022,168h-5c-7,0-11-2-11-10V110h17V90h-17V58H974V90H964v20h10v55c0,22,13,28,32,28h16Z" transform="translate(-1 -3)"/><path class="cls-1" d="M598,168h-4c-7,0-11-2-11-10V110h15V90H583V58H551V90H541v20h11v55c0,22,13,28,32,28h15Z" transform="translate(-1 -3)"/><path class="cls-1" d="M597,141c0-30,21-54,52-54,14,0,26,5,35,13s18,29,18,49H628c2,14,10,22,23,22s14-4,17-10h32a41,41,0,0,1-17,24c-9,6-19,9-32,9C617,195,597,171,597,141Zm72-11c-1-12-9-20-19-20s-19,8-21,20Z" transform="translate(-1 -3)"/><path class="cls-1" d="M289,50h56c17,0,30,5,39,13s14,21,14,35c0,27-19,46-48,46H322v47H289Zm57,67c13,0,20-8,20-19s-7-18-20-18H322v37Z" transform="translate(-1 -3)"/><circle class="cls-2" cx="122" cy="122" r="122"/><path class="cls-1" d="M123,3A122,122,0,0,0,79,239c-1-10-2-24,0-35l14-61a44,44,0,0,1-4-18c0-17,10-30,22-30s15,8,15,17-7,26-10,41,6,22,18,22,38-23,38-56-21-50-51-50S67,96,67,123c0,10,4,22,9,28a4,4,0,0,1,1,3l-3,14c-1,2-2,3-4,2-15-7-25-29-25-47,0-38,28-74,81-74s75,30,75,70-27,76-63,76c-12,0-24-6-28-14l-8,29c-3,11-10,24-15,32A122,122,0,1,0,123,3Z" transform="translate(-1 -3)"/></svg>
