<?xml version="1.0" encoding="utf-8"?>
<svg version="1.1" id="svg2" width="185.79" height="114.65" viewBox="11.174 10.203 185.793 113.283" xmlns="http://www.w3.org/2000/svg">
  <defs id="defs6">
    <linearGradient x1="0" y1="0" x2="1" y2="0" gradientUnits="userSpaceOnUse" gradientTransform="matrix(41.115173,0,0,-41.115173,271.20215,412.17691)" spreadMethod="pad" id="linearGradient30">
      <stop style="stop-opacity:1;stop-color:#ffc64c" offset="0" id="stop24"/>
      <stop style="stop-opacity:1;stop-color:#f11a8c" offset="0.5025" id="stop26"/>
      <stop style="stop-opacity:1;stop-color:#a00176" offset="1" id="stop28"/>
    </linearGradient>
    <linearGradient x1="0" y1="0" x2="1" y2="0" gradientUnits="userSpaceOnUse" gradientTransform="matrix(83.693237,0,0,-83.693237,291.22833,441.00732)" spreadMethod="pad" id="linearGradient52">
      <stop style="stop-opacity:1;stop-color:#ffc64c" offset="0" id="stop46"/>
      <stop style="stop-opacity:1;stop-color:#f11a8c" offset="0.5025" id="stop48"/>
      <stop style="stop-opacity:1;stop-color:#a00176" offset="1" id="stop50"/>
    </linearGradient>
    <linearGradient x1="0" y1="0" x2="1" y2="0" gradientUnits="userSpaceOnUse" gradientTransform="matrix(55.651184,0,0,-55.651184,235.57715,430.33179)" spreadMethod="pad" id="linearGradient74">
      <stop style="stop-opacity:1;stop-color:#ffc64c" offset="0" id="stop68"/>
      <stop style="stop-opacity:1;stop-color:#f11a8c" offset="0.5025" id="stop70"/>
      <stop style="stop-opacity:1;stop-color:#a00176" offset="1" id="stop72"/>
    </linearGradient>
  </defs>
  <g id="g10" transform="matrix(1.333333, 0, 0, -1.333333, -131.004501, 924.069519)">
    <g id="g12" transform="matrix(1, 0, 0, 1, -128.943268, 202.422913)">
      <g id="g14">
        <g id="g20">
          <g id="g22">
            <path d="m 277.237,420.053 c -3.723,-3.722 -6.035,-8.863 -6.035,-14.522 v 0 -7.266 h 9.508 v 7.266 c 0,3.034 1.245,5.796 3.25,7.799 v 0 c 2.003,2.006 4.766,3.25 7.799,3.25 v 0 c 3.034,0 5.796,-1.244 7.801,-3.25 v 0 c 2.003,-2.003 3.249,-4.765 3.249,-7.799 v 0 -7.266 h 9.508 v 7.266 c 0,5.658 -2.312,10.799 -6.035,14.522 v 0 c -3.723,3.724 -8.864,6.035 -14.523,6.035 v 0 c -5.659,0 -10.8,-2.311 -14.522,-6.035" style="fill:url(#linearGradient30);stroke:none" id="path32"/>
          </g>
        </g>
      </g>
    </g>
    <g id="g34" transform="matrix(1, 0, 0, 1, -128.943268, 202.422913)">
      <g id="g36">
        <g id="g42">
          <g id="g44">
            <path d="m 295.852,484 h -4.542 v -4.541 -16.81 h -0.082 v -9.508 h 0.144 c 0.209,-3.227 0.951,-6.31 2.137,-9.163 v 0 c 1.471,-3.54 3.63,-6.734 6.308,-9.411 v 0 c 2.678,-2.678 5.872,-4.838 9.412,-6.309 v 0 c 3.406,-1.416 7.14,-2.198 11.052,-2.198 v 0 h 0.744 v -25.547 h -0.047 v -2.498 h 9.556 v 34.721 h -0.015 v 2.406 h -10.238 c -2.676,0 -5.238,0.54 -7.58,1.515 v 0 c -2.435,1.013 -4.628,2.496 -6.463,4.33 v 0 c -1.835,1.836 -3.317,4.028 -4.33,6.462 v 0 c -0.976,2.343 -1.515,4.904 -1.515,7.58 v 0 18.749 1.14 h 1.14 18.748 c 2.676,0 5.237,-0.54 7.581,-1.515 v 0 c 2.434,-1.014 4.627,-2.496 6.461,-4.33 v 0 c 1.835,-1.835 3.317,-4.029 4.331,-6.463 v 0 c 0.975,-2.343 1.514,-4.904 1.514,-7.581 v 0 -27.191 c 0,-2.351 0.47,-4.593 1.319,-6.636 v 0 c 0.883,-2.126 2.18,-4.044 3.788,-5.652 v 0 c 1.608,-1.609 3.526,-2.905 5.651,-3.788 v 0 c 2.043,-0.848 4.286,-1.318 6.638,-1.318 v 0 c 2.351,0 4.594,0.47 6.637,1.318 v 0 c 2.125,0.883 4.043,2.179 5.651,3.788 v 0 c 1.609,1.608 2.906,3.526 3.788,5.651 v 0 c 0.71,1.711 1.155,3.56 1.282,5.497 v 0 h -9.125 c -0.099,-0.706 -0.288,-1.385 -0.555,-2.026 v 0 c -0.423,-1.014 -1.044,-1.929 -1.81,-2.697 v 0 l -0.005,-0.005 c -0.768,-0.766 -1.683,-1.387 -2.697,-1.81 v 0 c -0.98,-0.408 -2.05,-0.634 -3.166,-0.634 v 0 c -1.115,0 -2.186,0.226 -3.167,0.634 v 0 c -1.014,0.423 -1.929,1.044 -2.697,1.81 v 0 l -0.004,0.005 c -0.768,0.768 -1.387,1.684 -1.81,2.697 v 0 c -0.409,0.981 -0.636,2.051 -0.636,3.166 v 0 27.191 c 0,3.913 -0.782,7.647 -2.197,11.052 v 0 c -1.471,3.541 -3.631,6.735 -6.308,9.412 v 0 c -2.678,2.678 -5.873,4.838 -9.413,6.309 v 0 c -3.405,1.415 -7.139,2.198 -11.051,2.198 v 0 z" style="fill:url(#linearGradient52);stroke:none" id="path54"/>
          </g>
        </g>
      </g>
    </g>
    <g id="g56" transform="matrix(1, 0, 0, 1, -128.943268, 202.422913)">
      <g id="g58">
        <g id="g64">
          <g id="g66">
            <path d="m 287.078,462.649 c -10.491,0 -20.025,-4.289 -26.933,-11.197 v 0 c -4.762,-4.761 -7.877,-10.074 -9.584,-15.956 v 0 c -0.27,0.082 -0.535,0.177 -0.792,0.285 v 0 c -1.014,0.422 -1.93,1.042 -2.697,1.81 v 0 l -0.005,0.004 c -0.767,0.767 -1.387,1.683 -1.81,2.697 v 0 c -0.267,0.641 -0.456,1.321 -0.555,2.026 v 0 h -9.125 c 0.127,-1.937 0.571,-3.788 1.281,-5.498 v 0 c 0.882,-2.125 2.18,-4.042 3.788,-5.651 v 0 c 1.609,-1.608 3.527,-2.905 5.652,-3.788 v 0 c 0.879,-0.364 1.796,-0.66 2.742,-0.877 v 0 c -0.062,-1.001 -0.092,-2.015 -0.092,-3.044 v 0 -25.445 h 9.56 v 2.498 h -0.052 v 24.005 c 0,7.867 3.222,15.022 8.411,20.212 v 0 c 5.189,5.188 12.345,8.411 20.211,8.411 v 0 h 4.15 v 9.508 z" style="fill:url(#linearGradient74);stroke:none" id="path76"/>
          </g>
        </g>
      </g>
    </g>
  </g>
</svg>
