<svg id="aa32e198-fc66-4749-8443-866ba84edf6a" data-name="Layer 1" xmlns="http://www.w3.org/2000/svg" xmlns:xlink="http://www.w3.org/1999/xlink" viewBox="0 0 158 75"><defs><clipPath id="b2558ac3-e291-471e-aeaf-eecdafc07ab3"><rect width="158" height="75" style="fill:none"></rect></clipPath><linearGradient id="f91e6475-123a-4d2a-96f6-79432f1f93cc" x1="11.12" y1="11.91" x2="64.11" y2="65.11" gradientTransform="matrix(1, 0, 0, -1, 0, 76)" gradientUnits="userSpaceOnUse"><stop offset="0" stop-color="#4977e6"></stop><stop offset="1" stop-color="#73c4b5"></stop></linearGradient></defs><g style="clip-path:url(#b2558ac3-e291-471e-aeaf-eecdafc07ab3)"><path d="M37.62,75A37.5,37.5,0,1,1,75.24,37.49,37.6,37.6,0,0,1,37.62,75Zm0-64A26.51,26.51,0,1,0,64.2,37.51,26.57,26.57,0,0,0,37.62,11Z" style="fill:url(#f91e6475-123a-4d2a-96f6-79432f1f93cc)"></path><path d="M84.9,19.11a7.33,7.33,0,0,1,7.69-7.75c3.82,0,6.56,2.22,6.74,5.48H96.09c-.23-1.63-1.58-2.68-3.53-2.68C90,14.16,88,16,88,19.11s2,5.1,4.51,5.1c1.88,0,3.74-1.37,3.74-2.77a.57.57,0,0,0-.61-.61H92.71V18.38h4.13a2.43,2.43,0,0,1,2.44,2.45v5.84H96.41V24.35a4.07,4.07,0,0,1-4.06,2.49C88.47,26.85,84.9,24.27,84.9,19.11Z" style="fill:#fff"></path><path d="M106.21,18.29c-1.5,0-2.16,1.23-2.16,3.09v5.29h-3V15.79h3V17.6a2.58,2.58,0,0,1,2.72-1.81H108V18.3h-1.8Z" style="fill:#fff"></path><path d="M108.66,21.23c0-3.39,1.93-5.62,5.12-5.62a3.83,3.83,0,0,1,3,1.25V15.79h3v10.9h-3V25.54a3.6,3.6,0,0,1-3,1.31C110.59,26.85,108.66,24.62,108.66,21.23Zm8.33,0c0-1.84-1-3-2.69-3s-2.67,1.21-2.67,3,1.05,3,2.67,3A2.71,2.71,0,0,0,117,21.23Z" style="fill:#fff"></path><path d="M121.68,15.79h3V17.3A3.69,3.69,0,0,1,128,15.61a4,4,0,0,1,4.08,4.27v6.79h-3V20.56a2.09,2.09,0,0,0-2.1-2.27,2.26,2.26,0,0,0-2.26,2.41v6h-3Z" style="fill:#fff"></path><path d="M133.44,21.23c0-3.39,1.94-5.62,5.11-5.62a3.73,3.73,0,0,1,3,1.31V11.05h3V26.69h-3v-1.2a3.66,3.66,0,0,1-3,1.36C135.38,26.85,133.44,24.62,133.44,21.23Zm8.32,0c0-1.84-1.06-3-2.68-3s-2.67,1.21-2.67,3,1.05,3,2.67,3S141.76,23,141.76,21.23Z" style="fill:#fff"></path><path d="M98.77,45.34H95.52L95.1,41.6a1.83,1.83,0,0,0-1.86-1.74H90.3v5.49H87V30.22h6.39c3.24,0,5.12,2,5.12,4.76a3.35,3.35,0,0,1-1.92,3.15,4.12,4.12,0,0,1,1.74,3ZM90.3,37.05h3a2,2,0,0,0,2.15-2.11,2,2,0,0,0-2.15-2h-3Z" style="fill:#fff"></path><path d="M99.58,39.89a5.76,5.76,0,1,1,5.76,5.63A5.51,5.51,0,0,1,99.58,39.89Zm8.5,0a2.75,2.75,0,1,0-5.47,0,2.75,2.75,0,1,0,5.47,0Z" style="fill:#fff"></path><path d="M122.85,45.34h-3V43.82a3.72,3.72,0,0,1-3.32,1.7,4,4,0,0,1-4.06-4.28V34.45h3v6.12a2.11,2.11,0,0,0,2.1,2.27,2.27,2.27,0,0,0,2.26-2.42v-6h3Z" style="fill:#fff"></path><path d="M124.67,34.43h3V36a3.67,3.67,0,0,1,3.32-1.7,4,4,0,0,1,4.07,4.28v6.79h-3V39.2a2.1,2.1,0,0,0-2.1-2.27,2.26,2.26,0,0,0-2.26,2.42v6h-3Z" style="fill:#fff"></path><path d="M136.42,39.89c0-3.38,2-5.62,5.12-5.62a3.76,3.76,0,0,1,3,1.31V29.7h3V45.34h-3V44.15a3.67,3.67,0,0,1-3,1.37C138.37,45.5,136.42,43.28,136.42,39.89Zm8.32,0c0-1.84-1.05-3-2.67-3s-2.67,1.22-2.67,3,1,3,2.67,3S144.74,41.7,144.74,39.89Z" style="fill:#fff"></path><path d="M149.15,41.65h2.61a1.82,1.82,0,0,0,2,1.58c.92,0,1.58-.46,1.58-1,0-2.22-5.88,0-5.88-4.62,0-1.93,1.67-3.29,3.9-3.29,2.63,0,4.41,1.4,4.51,3.55h-2.63a1.72,1.72,0,0,0-1.8-1.43c-.84,0-1.43.36-1.43,1,0,2.22,6-.29,6,4.62,0,2.07-1.68,3.44-4.24,3.44S149.25,44,149.15,41.65Z" style="fill:#fff"></path><path d="M98.74,48.87V64H96.89V57h-8v7H87V48.87h1.85v6.48h8V48.87Z" style="fill:#fff"></path><path d="M111.66,60.5c-.36,2.22-2.29,3.68-5,3.68a5.4,5.4,0,0,1-5.4-5.69c0-3.21,2-5.56,5.2-5.56a4.84,4.84,0,0,1,5.1,5.1,4.27,4.27,0,0,1,0,.76H103a3.76,3.76,0,0,0,3.68,3.84c1.79,0,2.91-.77,3.26-2.13ZM103,57.4h6.72a3.07,3.07,0,0,0-3.32-3A3.28,3.28,0,0,0,103,57.4Z" style="fill:#fff"></path><path d="M113.68,58.56c0-3.18,1.86-5.63,5.26-5.63a4.52,4.52,0,0,1,3.62,1.78v-1.6h1.73V64h-1.73V62.39a4.06,4.06,0,0,1-3.62,1.79C115.54,64.16,113.68,61.73,113.68,58.56Zm9,0c0-2.47-1.43-4.07-3.61-4.07s-3.65,1.6-3.65,4.07,1.45,4.06,3.65,4.06S122.72,61,122.72,58.56Z" style="fill:#fff"></path><path d="M127.59,48.62h1.73V64h-1.73Z" style="fill:#fff"></path><path d="M135.52,49.63v3.48h3.36v1.53h-3.36v5.91a1.7,1.7,0,0,0,1.75,1.92h1.6V64H137.2a3.19,3.19,0,0,1-3.43-3.42V54.63h-2.28V53.1h2.28V49.61h1.75Z" style="fill:#fff"></path><path d="M141.21,48.62h1.73V55.2a3.6,3.6,0,0,1,3.6-2.27c2.48,0,4.08,1.76,4.08,4.41V64h-1.73V57.62c0-1.86-1.09-3.11-2.73-3.11-1.86,0-3.2,1.5-3.2,3.62V64h-1.73V48.62Z" style="fill:#fff"></path></g></svg>
